# Blender v2.83.0 OBJ File: 'planar_collision.blend'
# www.blender.org
mtllib planar_collision.mtl
o Mball
v 0.042551 0.082253 -0.050295
v 0.042551 0.050295 -0.082253
v 0.070918 0.050295 -0.082253
v 0.070918 0.082253 -0.050295
v 0.042551 0.047497 -0.083825
v 0.070918 0.047497 -0.083825
v 0.042551 0.016765 -0.095000
v 0.070918 0.016765 -0.095000
v 0.042551 -0.016765 -0.095000
v 0.070918 -0.016765 -0.095000
v 0.042551 -0.047497 -0.083825
v 0.070918 -0.047497 -0.083825
v 0.099285 -0.033748 -0.083825
v 0.099285 -0.016765 -0.088864
v 0.070918 -0.050295 -0.082253
v 0.099285 -0.050295 -0.075084
v 0.070918 -0.082253 -0.050295
v 0.099285 -0.075084 -0.050295
v 0.070918 -0.083825 -0.047497
v 0.099285 -0.083825 -0.033748
v 0.070918 -0.095000 -0.016765
v 0.099285 -0.088864 -0.016765
v 0.070918 -0.095000 0.016765
v 0.099285 -0.088864 0.016765
v 0.070918 -0.083825 0.047497
v 0.099285 -0.083825 0.033748
v 0.070918 -0.082253 0.050295
v 0.099285 -0.075084 0.050295
v 0.125942 -0.050295 0.050295
v 0.127652 -0.050295 0.047497
v 0.127652 -0.067179 0.016765
v 0.108518 -0.083825 0.016765
v 0.127652 -0.047497 0.050295
v 0.099285 -0.033748 0.083825
v 0.108518 -0.016765 0.083825
v 0.127652 -0.016765 0.067179
v 0.099285 -0.050295 0.075084
v 0.108518 0.016765 0.083825
v 0.127652 0.016765 0.067179
v 0.099285 0.033748 0.083825
v 0.099285 0.050295 0.075084
v 0.125942 0.050295 0.050295
v 0.127652 0.047497 0.050295
v 0.099285 0.075084 0.050295
v 0.099285 0.083825 0.033748
v 0.108518 0.083825 0.016765
v 0.127652 0.067179 0.016765
v 0.127652 0.050295 0.047497
v 0.099285 0.088864 0.016765
v 0.099285 0.088864 -0.016765
v 0.108518 0.083825 -0.016765
v 0.099285 0.083825 -0.033748
v 0.099285 0.075084 -0.050295
v 0.125942 0.050295 -0.050295
v 0.127652 0.050295 -0.047497
v 0.127652 0.067179 -0.016765
v 0.127652 0.047497 -0.050295
v 0.099285 0.033748 -0.083825
v 0.108518 0.016765 -0.083825
v 0.127652 0.016765 -0.067179
v 0.099285 0.050295 -0.075084
v 0.127652 -0.016765 -0.067179
v 0.108518 -0.016765 -0.083825
v 0.099285 0.016765 -0.088864
v 0.139055 -0.016765 -0.050295
v 0.139055 0.016765 -0.050295
v 0.127652 -0.047497 -0.050295
v 0.127652 -0.050295 -0.047497
v 0.139055 -0.050295 -0.016765
v 0.149999 -0.016765 -0.016765
v 0.127652 -0.067179 -0.016765
v 0.139055 -0.050295 0.016765
v 0.149999 -0.016765 0.016765
v 0.149999 0.016765 0.016765
v 0.149999 0.016765 -0.016765
v 0.139055 0.050295 0.016765
v 0.139055 0.050295 -0.016765
v 0.139055 0.016765 0.050295
v 0.139055 -0.016765 0.050295
v 0.125942 -0.050295 -0.050295
v 0.070918 0.083825 -0.047497
v 0.070918 0.095000 0.016765
v 0.070918 0.095000 -0.016765
v 0.042551 0.095000 0.016765
v 0.042551 0.095000 -0.016765
v 0.042551 0.083825 -0.047497
v 0.070918 0.083825 0.047497
v 0.042551 0.083825 0.047497
v 0.014184 0.095000 0.016765
v 0.014184 0.083825 0.047497
v -0.014184 0.095000 0.016765
v -0.014184 0.083825 0.047497
v -0.014184 0.082253 0.050295
v 0.014184 0.082253 0.050295
v 0.014184 0.050295 0.082253
v -0.014184 0.050295 0.082253
v -0.014184 0.047497 0.083825
v 0.014184 0.047497 0.083825
v 0.014184 0.016765 0.095000
v -0.014184 0.016765 0.095000
v -0.014184 -0.016765 0.095000
v 0.014184 -0.016765 0.095000
v -0.014184 -0.047497 0.083825
v 0.014184 -0.047497 0.083825
v 0.014184 -0.050295 0.082253
v -0.014184 -0.050295 0.082253
v -0.014184 -0.082253 0.050295
v 0.014184 -0.082253 0.050295
v 0.014184 -0.083825 0.047497
v -0.014184 -0.083825 0.047497
v -0.014184 -0.095000 0.016765
v 0.014184 -0.095000 0.016765
v 0.014184 -0.095000 -0.016765
v -0.014184 -0.095000 -0.016765
v 0.014184 -0.083825 -0.047497
v -0.014184 -0.083825 -0.047497
v -0.014184 -0.082253 -0.050295
v 0.014184 -0.082253 -0.050295
v 0.014184 -0.050295 -0.082253
v -0.014184 -0.050295 -0.082253
v -0.014184 -0.047497 -0.083825
v 0.014184 -0.047497 -0.083825
v 0.014184 -0.016765 -0.095000
v -0.014184 -0.016765 -0.095000
v 0.014184 0.016765 -0.095000
v -0.014184 0.016765 -0.095000
v -0.014184 0.047497 -0.083825
v 0.014184 0.047497 -0.083825
v 0.014184 0.050295 -0.082253
v -0.014184 0.050295 -0.082253
v -0.014184 0.082253 -0.050295
v 0.014184 0.082253 -0.050295
v 0.014184 0.083825 -0.047497
v -0.014184 0.083825 -0.047497
v -0.014184 0.095000 -0.016765
v 0.014184 0.095000 -0.016765
v -0.042551 0.095000 -0.016765
v -0.042551 0.083825 -0.047497
v -0.042551 0.095000 0.016765
v -0.070918 0.095000 0.016765
v -0.070918 0.095000 -0.016765
v -0.042551 0.083825 0.047497
v -0.070918 0.083825 0.047497
v -0.070918 0.082253 0.050295
v -0.042551 0.082253 0.050295
v -0.042551 0.050295 0.082253
v -0.070918 0.050295 0.082253
v -0.070918 0.047497 0.083825
v -0.042551 0.047497 0.083825
v -0.042551 0.016765 0.095000
v -0.070918 0.016765 0.095000
v -0.070918 -0.016765 0.095000
v -0.042551 -0.016765 0.095000
v -0.070918 -0.047497 0.083825
v -0.042551 -0.047497 0.083825
v -0.042551 -0.050295 0.082253
v -0.070918 -0.050295 0.082253
v -0.099285 -0.033748 0.083825
v -0.099285 -0.050295 0.075084
v -0.099285 -0.075084 0.050295
v -0.070918 -0.082253 0.050295
v -0.070918 -0.083825 0.047497
v -0.099285 -0.083825 0.033748
v -0.099285 -0.088864 0.016765
v -0.070918 -0.095000 0.016765
v -0.070918 -0.095000 -0.016765
v -0.099285 -0.088864 -0.016765
v -0.042551 -0.095000 0.016765
v -0.042551 -0.095000 -0.016765
v -0.042551 -0.083825 -0.047497
v -0.070918 -0.083825 -0.047497
v -0.070918 -0.082253 -0.050295
v -0.042551 -0.082253 -0.050295
v -0.042551 -0.050295 -0.082253
v -0.070918 -0.050295 -0.082253
v -0.070918 -0.047497 -0.083825
v -0.042551 -0.047497 -0.083825
v -0.042551 -0.016765 -0.095000
v -0.070918 -0.016765 -0.095000
v -0.042551 0.016765 -0.095000
v -0.070918 0.016765 -0.095000
v -0.099285 -0.016765 -0.088864
v -0.099285 0.016765 -0.088864
v -0.099285 0.033748 -0.083825
v -0.070918 0.047497 -0.083825
v -0.070918 0.050295 -0.082253
v -0.099285 0.050295 -0.075084
v -0.099285 0.075084 -0.050295
v -0.070918 0.082253 -0.050295
v -0.070918 0.083825 -0.047497
v -0.099285 0.083825 -0.033748
v -0.099285 0.088864 -0.016765
v -0.108518 0.083825 -0.016765
v -0.099285 0.088864 0.016765
v -0.108518 0.083825 0.016765
v -0.127652 0.067179 0.016765
v -0.127652 0.067179 -0.016765
v -0.099285 0.083825 0.033748
v -0.099285 0.075084 0.050295
v -0.125942 0.050295 0.050295
v -0.127652 0.050295 0.047497
v -0.127652 0.047497 0.050295
v -0.099285 0.050295 0.075084
v -0.099285 0.033748 0.083825
v -0.108518 0.016765 0.083825
v -0.127652 0.016765 0.067179
v -0.127652 -0.016765 0.067179
v -0.108518 -0.016765 0.083825
v -0.099285 -0.016765 0.088864
v -0.099285 0.016765 0.088864
v -0.139055 -0.016765 0.050295
v -0.139055 0.016765 0.050295
v -0.127652 -0.047497 0.050295
v -0.127652 -0.050295 0.047497
v -0.139055 -0.050295 0.016765
v -0.149999 -0.016765 0.016765
v -0.127652 -0.067179 0.016765
v -0.127652 -0.067179 -0.016765
v -0.139055 -0.050295 -0.016765
v -0.127652 -0.050295 -0.047497
v -0.127652 -0.047497 -0.050295
v -0.139055 -0.016765 -0.050295
v -0.149999 -0.016765 -0.016765
v -0.139055 0.016765 -0.050295
v -0.149999 0.016765 -0.016765
v -0.127652 -0.016765 -0.067179
v -0.127652 0.016765 -0.067179
v -0.127652 0.047497 -0.050295
v -0.108518 -0.016765 -0.083825
v -0.108518 0.016765 -0.083825
v -0.125942 -0.050295 -0.050295
v -0.099285 -0.050295 -0.075084
v -0.099285 -0.033748 -0.083825
v -0.099285 -0.075084 -0.050295
v -0.149999 0.016765 0.016765
v -0.139055 0.050295 -0.016765
v -0.139055 0.050295 0.016765
v -0.108518 -0.083825 -0.016765
v -0.099285 -0.083825 -0.033748
v -0.108518 -0.083825 0.016765
v -0.125942 -0.050295 0.050295
v -0.127652 0.050295 -0.047497
v -0.042551 0.082253 -0.050295
v -0.125942 0.050295 -0.050295
v -0.042551 0.050295 -0.082253
v -0.042551 0.047497 -0.083825
v -0.042551 -0.083825 0.047497
v -0.042551 -0.082253 0.050295
v 0.042551 -0.082253 -0.050295
v 0.042551 -0.050295 -0.082253
v 0.042551 -0.083825 -0.047497
v 0.042551 -0.095000 0.016765
v 0.042551 -0.095000 -0.016765
v 0.042551 -0.083825 0.047497
v 0.042551 -0.082253 0.050295
v 0.042551 -0.047497 0.083825
v 0.042551 -0.050295 0.082253
v 0.070918 -0.047497 0.083825
v 0.070918 -0.050295 0.082253
v 0.042551 -0.016765 0.095000
v 0.070918 -0.016765 0.095000
v 0.042551 0.016765 0.095000
v 0.070918 0.016765 0.095000
v 0.042551 0.047497 0.083825
v 0.070918 0.047497 0.083825
v 0.042551 0.050295 0.082253
v 0.070918 0.050295 0.082253
v 0.042551 0.082253 0.050295
v 0.070918 0.082253 0.050295
v 0.099285 0.016765 0.088864
v 0.099285 -0.016765 0.088864
v 0.108518 -0.083825 -0.016765
vn 0.1007 0.8000 -0.5914
vn 0.1007 0.5914 -0.8000
vn 0.0000 0.6041 -0.7969
vn 0.0000 0.7969 -0.6041
vn 0.1025 0.4147 -0.9042
vn 0.0000 0.4172 -0.9088
vn 0.0981 0.1660 -0.9812
vn 0.0000 0.1735 -0.9848
vn 0.0981 -0.1660 -0.9812
vn 0.0000 -0.1735 -0.9848
vn 0.1025 -0.4147 -0.9042
vn 0.0000 -0.4172 -0.9088
vn 0.3358 -0.1445 -0.9308
vn 0.4019 -0.3676 -0.8387
vn 0.4056 -0.5387 -0.7384
vn 0.1007 -0.5914 -0.8000
vn 0.4033 -0.7400 -0.5382
vn 0.1007 -0.8000 -0.5914
vn 0.3991 -0.8422 -0.3624
vn 0.1025 -0.9042 -0.4147
vn 0.3358 -0.9308 -0.1445
vn 0.0981 -0.9812 -0.1660
vn 0.3358 -0.9308 0.1445
vn 0.0981 -0.9812 0.1660
vn 0.3991 -0.8422 0.3624
vn 0.1025 -0.9042 0.4147
vn 0.4033 -0.7400 0.5382
vn 0.1007 -0.8000 0.5914
vn 0.7328 -0.6588 0.1701
vn 0.7737 -0.5142 0.3699
vn 0.6570 -0.5309 0.5352
vn 0.5767 -0.8012 0.1594
vn 0.7776 -0.3627 0.5136
vn 0.7322 -0.1705 0.6594
vn 0.5780 -0.1633 0.7995
vn 0.4019 -0.3676 0.8387
vn 0.4056 -0.5387 0.7384
vn 0.7322 0.1705 0.6594
vn 0.5780 0.1633 0.7995
vn 0.7792 0.3591 0.5137
vn 0.6570 0.5309 0.5352
vn 0.4056 0.5387 0.7384
vn 0.4019 0.3676 0.8387
vn 0.4033 0.7400 0.5382
vn 0.7328 0.6588 0.1701
vn 0.5767 0.8012 0.1594
vn 0.3991 0.8422 0.3624
vn 0.7802 0.5033 0.3713
vn 0.3358 0.9308 0.1445
vn 0.5767 0.8012 -0.1594
vn 0.3358 0.9308 -0.1445
vn 0.3991 0.8422 -0.3624
vn 0.7328 0.6588 -0.1701
vn 0.7737 0.5142 -0.3699
vn 0.6570 0.5309 -0.5352
vn 0.4033 0.7400 -0.5382
vn 0.7776 0.3627 -0.5136
vn 0.7322 0.1705 -0.6594
vn 0.5780 0.1633 -0.7995
vn 0.4019 0.3676 -0.8387
vn 0.4056 0.5387 -0.7384
vn 0.5780 -0.1633 -0.7995
vn 0.7322 -0.1705 -0.6594
vn 0.3358 0.1445 -0.9308
vn 0.8884 0.1529 -0.4328
vn 0.8896 -0.1589 -0.4281
vn 0.7792 -0.3591 -0.5137
vn 0.9749 -0.1574 -0.1571
vn 0.8895 -0.4288 -0.1580
vn 0.7802 -0.5033 -0.3713
vn 0.7328 -0.6588 -0.1701
vn 0.8883 -0.4330 0.1532
vn 0.9750 -0.1571 0.1571
vn 0.9750 0.1571 -0.1571
vn 0.9749 0.1574 0.1571
vn 0.8883 0.4330 -0.1532
vn 0.8895 0.4288 0.1580
vn 0.8896 0.1589 0.4281
vn 0.8884 -0.1529 0.4328
vn 0.6570 -0.5309 -0.5352
vn 0.1025 0.9042 -0.4147
vn 0.0981 0.9812 -0.1660
vn 0.0981 0.9812 0.1660
vn 0.0000 0.9848 -0.1735
vn 0.0000 0.9848 0.1735
vn 0.0000 0.9088 -0.4172
vn 0.0000 0.9088 0.4172
vn 0.1025 0.9042 0.4147
vn 0.0000 0.7969 0.6041
vn 0.0000 0.6041 0.7969
vn 0.0000 0.4172 0.9088
vn 0.0000 0.1735 0.9848
vn 0.0000 -0.1735 0.9848
vn 0.0000 -0.4172 0.9088
vn 0.0000 -0.6041 0.7969
vn 0.0000 -0.7969 0.6041
vn 0.0000 -0.9088 0.4172
vn 0.0000 -0.9848 0.1735
vn 0.0000 -0.9848 -0.1735
vn 0.0000 -0.9088 -0.4172
vn 0.0000 -0.7969 -0.6041
vn 0.0000 -0.6041 -0.7969
vn -0.0981 0.9812 -0.1660
vn -0.0981 0.9812 0.1660
vn -0.1025 0.9042 0.4147
vn -0.1007 0.8000 0.5914
vn -0.1007 0.5914 0.8000
vn -0.1025 0.4147 0.9042
vn -0.0981 0.1660 0.9812
vn -0.0981 -0.1660 0.9812
vn -0.1025 -0.4147 0.9042
vn -0.1007 -0.5914 0.8000
vn -0.4056 -0.5387 0.7384
vn -0.4019 -0.3676 0.8387
vn -0.1007 -0.8000 0.5914
vn -0.4033 -0.7400 0.5382
vn -0.3991 -0.8422 0.3624
vn -0.1025 -0.9042 0.4147
vn -0.0981 -0.9812 0.1660
vn -0.3358 -0.9308 0.1445
vn -0.3358 -0.9308 -0.1445
vn -0.0981 -0.9812 -0.1660
vn -0.1025 -0.9042 -0.4147
vn -0.1007 -0.8000 -0.5914
vn -0.1007 -0.5914 -0.8000
vn -0.1025 -0.4147 -0.9042
vn -0.0981 -0.1660 -0.9812
vn -0.0981 0.1660 -0.9812
vn -0.3358 0.1445 -0.9308
vn -0.3358 -0.1445 -0.9308
vn -0.1025 0.4147 -0.9042
vn -0.4019 0.3676 -0.8387
vn -0.4056 0.5387 -0.7384
vn -0.1007 0.5914 -0.8000
vn -0.1007 0.8000 -0.5914
vn -0.4033 0.7400 -0.5382
vn -0.3991 0.8422 -0.3624
vn -0.1025 0.9042 -0.4147
vn -0.3358 0.9308 -0.1445
vn -0.5767 0.8012 -0.1594
vn -0.5767 0.8012 0.1594
vn -0.3358 0.9308 0.1445
vn -0.7328 0.6588 -0.1701
vn -0.7328 0.6588 0.1701
vn -0.4033 0.7400 0.5382
vn -0.3991 0.8422 0.3624
vn -0.7737 0.5142 0.3699
vn -0.6570 0.5309 0.5352
vn -0.7776 0.3627 0.5136
vn -0.4019 0.3676 0.8387
vn -0.4056 0.5387 0.7384
vn -0.7322 0.1705 0.6594
vn -0.5780 0.1633 0.7995
vn -0.5780 -0.1633 0.7995
vn -0.7322 -0.1705 0.6594
vn -0.3358 0.1445 0.9308
vn -0.3358 -0.1445 0.9308
vn -0.8884 0.1529 0.4328
vn -0.8896 -0.1589 0.4281
vn -0.7792 -0.3591 0.5137
vn -0.9749 -0.1574 0.1571
vn -0.8895 -0.4288 0.1580
vn -0.7802 -0.5033 0.3713
vn -0.7328 -0.6588 0.1701
vn -0.8883 -0.4330 -0.1532
vn -0.7328 -0.6588 -0.1701
vn -0.7737 -0.5142 -0.3699
vn -0.9750 -0.1571 -0.1571
vn -0.8884 -0.1529 -0.4328
vn -0.7776 -0.3627 -0.5136
vn -0.9749 0.1574 -0.1571
vn -0.8896 0.1589 -0.4281
vn -0.7322 0.1705 -0.6594
vn -0.7322 -0.1705 -0.6594
vn -0.7792 0.3591 -0.5137
vn -0.5780 0.1633 -0.7995
vn -0.5780 -0.1633 -0.7995
vn -0.4019 -0.3676 -0.8387
vn -0.4056 -0.5387 -0.7384
vn -0.6570 -0.5309 -0.5352
vn -0.4033 -0.7400 -0.5382
vn -0.9750 0.1571 0.1571
vn -0.8883 0.4330 0.1532
vn -0.8895 0.4288 -0.1580
vn -0.3991 -0.8422 -0.3624
vn -0.5767 -0.8012 -0.1594
vn -0.5767 -0.8012 0.1594
vn -0.6570 -0.5309 0.5352
vn -0.7802 0.5033 -0.3713
vn -0.6570 0.5309 -0.5352
vn 0.1007 -0.5914 0.8000
vn 0.1025 -0.4147 0.9042
vn 0.0981 -0.1660 0.9812
vn 0.0981 0.1660 0.9812
vn 0.1025 0.4147 0.9042
vn 0.1007 0.5914 0.8000
vn 0.1007 0.8000 0.5914
vn 0.3358 0.1445 0.9308
vn 0.3358 -0.1445 0.9308
vn 0.5767 -0.8012 -0.1594
usemtl None
s 1
f 4//1 3//2 2//3 1//4
f 2//3 3//2 6//5 5//6
f 6//5 8//7 7//8 5//6
f 7//8 8//7 10//9 9//10
f 9//10 10//9 12//11 11//12
f 10//9 14//13 13//14 12//11
f 13//14 16//15 15//16 12//11
f 15//16 16//15 18//17 17//18
f 18//17 20//19 19//20 17//18
f 19//20 20//19 22//21 21//22
f 21//22 22//21 24//23 23//24
f 24//23 26//25 25//26 23//24
f 25//26 26//25 28//27 27//28
f 31//29 30//30 29//31 28//27
f 26//25 32//32 31//29 28//27
f 29//31 30//30 33//33
f 33//33 36//34 35//35 34//36
f 37//37 29//31 33//33 34//36
f 39//38 38//39 35//35 36//34
f 43//40 42//41 41//42 40//43
f 38//39 39//38 43//40 40//43
f 41//42 42//41 44//44
f 47//45 46//46 45//47 44//44
f 42//41 48//48 47//45 44//44
f 45//47 46//46 49//49
f 46//46 51//50 50//51 49//49
f 51//50 52//52 50//51
f 56//53 55//54 54//55 53//56
f 52//52 51//50 56//53 53//56
f 54//55 55//54 57//57
f 57//57 60//58 59//59 58//60
f 61//61 54//55 57//57 58//60
f 63//62 59//59 60//58 62//63
f 64//64 59//59 63//62 14//13
f 60//58 66//65 65//66 62//63
f 62//63 65//66 67//67
f 70//68 69//69 68//70 67//67
f 65//66 70//68 67//67
f 68//70 69//69 71//71
f 71//71 69//69 72//72 31//29
f 69//69 70//68 73//73 72//72
f 70//68 75//74 74//75 73//73
f 75//74 77//76 76//77 74//75
f 76//77 77//76 56//53 47//45
f 74//75 76//77 48//48 43//40
f 78//78 74//75 43//40
f 73//73 74//75 78//78 79//79
f 68//70 80//80 67//67
f 65//66 66//65 75//74 70//68
f 59//59 64//64 58//60
f 66//65 60//58 57//57
f 54//55 61//61 53//56
f 77//76 55//54 56//53
f 81//81 52//52 53//56 4//1
f 49//49 50//51 83//82 82//83
f 82//83 83//82 85//84 84//85
f 83//82 81//81 86//86 85//84
f 88//87 87//88 82//83 84//85
f 90//87 88//87 84//85 89//85
f 92//87 90//87 89//85 91//85
f 94//89 90//87 92//87 93//89
f 96//90 95//90 94//89 93//89
f 98//91 95//90 96//90 97//91
f 100//92 99//92 98//91 97//91
f 102//93 99//92 100//92 101//93
f 104//94 102//93 101//93 103//94
f 106//95 105//95 104//94 103//94
f 108//96 105//95 106//95 107//96
f 110//97 109//97 108//96 107//96
f 112//98 109//97 110//97 111//98
f 114//99 113//99 112//98 111//98
f 116//100 115//100 113//99 114//99
f 118//101 115//100 116//100 117//101
f 120//102 119//102 118//101 117//101
f 122//12 119//102 120//102 121//12
f 124//10 123//10 122//12 121//12
f 126//8 125//8 123//10 124//10
f 128//6 125//8 126//8 127//6
f 130//3 129//3 128//6 127//6
f 132//4 129//3 130//3 131//4
f 134//86 133//86 132//4 131//4
f 136//84 133//86 134//86 135//84
f 135//84 134//86 138//86 137//84
f 91//85 135//84 137//84 139//85
f 139//85 137//84 141//103 140//104
f 143//105 142//87 139//85 140//104
f 145//89 142//87 143//105 144//106
f 147//107 146//90 145//89 144//106
f 149//91 146//90 147//107 148//108
f 151//109 150//92 149//91 148//108
f 153//93 150//92 151//109 152//110
f 155//94 153//93 152//110 154//111
f 157//112 156//95 155//94 154//111
f 159//113 157//112 154//111 158//114
f 161//115 157//112 159//113 160//116
f 163//117 162//118 161//115 160//116
f 165//119 162//118 163//117 164//120
f 167//121 166//122 165//119 164//120
f 166//122 169//99 168//98 165//119
f 171//123 170//100 169//99 166//122
f 173//101 170//100 171//123 172//124
f 175//125 174//102 173//101 172//124
f 177//12 174//102 175//125 176//126
f 179//127 178//10 177//12 176//126
f 181//128 180//8 178//10 179//127
f 183//129 181//128 179//127 182//130
f 185//131 181//128 183//129 184//132
f 187//133 186//134 185//131 184//132
f 189//135 186//134 187//133 188//136
f 191//137 190//138 189//135 188//136
f 141//103 190//138 191//137 192//139
f 191//137 193//140 192//139
f 192//139 193//140 195//141 194//142
f 195//141 193//140 197//143 196//144
f 199//145 198//146 195//141 196//144
f 201//147 200//148 199//145 196//144
f 200//148 201//147 202//149
f 204//150 203//151 200//148 202//149
f 206//152 205//153 204//150 202//149
f 208//154 205//153 206//152 207//155
f 210//156 205//153 208//154 209//157
f 209//157 208//154 158//114
f 206//152 212//158 211//159 207//155
f 207//155 211//159 213//160
f 216//161 215//162 214//163 213//160
f 211//159 216//161 213//160
f 214//163 215//162 217//164
f 215//162 219//165 218//166 217//164
f 219//165 220//167 218//166
f 219//165 223//168 222//169 221//170
f 220//167 219//165 221//170
f 225//171 224//172 222//169 223//168
f 222//169 224//172 227//173 226//174
f 227//173 224//172 228//175
f 227//173 230//176 229//177 226//174
f 233//178 232//179 231//180 221//170
f 226//174 229//177 233//178 221//170
f 231//180 232//179 234//181
f 229//177 182//130 233//178
f 235//182 225//171 223//168 216//161
f 237//183 236//184 225//171 235//182
f 222//169 226//174 221//170
f 231//180 220//167 221//170
f 234//181 239//185 238//186 218//166
f 220//167 231//180 234//181 218//166
f 238//186 239//185 167//121
f 218//166 238//186 240//187 217//164
f 216//161 223//168 219//165 215//162
f 214//163 241//188 213//160
f 212//158 235//182 216//161 211//159
f 205//153 210//156 204//150
f 212//158 206//152 202//149
f 237//183 235//182 212//158 202//149
f 201//147 237//183 202//149
f 200//148 203//151 199//145
f 237//183 201//147 196//144
f 197//143 236//184 237//183 196//144
f 242//189 236//184 197//143
f 195//141 198//146 194//142
f 190//138 138//86 243//4 189//135
f 188//136 244//190 242//189 197//143
f 193//140 191//137 188//136 197//143
f 242//189 244//190 228//175
f 243//4 245//3 186//134 189//135
f 187//133 244//190 188//136
f 186//134 245//3 246//6 185//131
f 184//132 230//176 227//173 228//175
f 244//190 187//133 184//132 228//175
f 183//129 230//176 184//132
f 229//177 230//176 183//129 182//130
f 182//130 179//127 176//126 233//178
f 176//126 175//125 232//179 233//178
f 232//179 175//125 172//124 234//181
f 172//124 171//123 239//185 234//181
f 240//187 238//186 167//121 164//120
f 168//98 247//97 162//118 165//119
f 163//117 240//187 164//120
f 162//118 247//97 248//96 161//115
f 160//116 241//188 214//163 217//164
f 240//187 163//117 160//116 217//164
f 159//113 241//188 160//116
f 158//114 208//154 207//155 213//160
f 241//188 159//113 158//114 213//160
f 154//111 152//110 209//157 158//114
f 152//110 151//109 210//156 209//157
f 148//108 147//107 203//151 204//150
f 203//151 147//107 144//106 199//145
f 144//106 143//105 198//146 199//145
f 198//146 143//105 140//104 194//142
f 140//104 141//103 192//139 194//142
f 133//86 86//86 1//4 132//4
f 138//86 134//86 131//4 243//4
f 245//3 130//3 127//6 246//6
f 127//6 126//8 180//8 246//6
f 180//8 126//8 124//10 178//10
f 178//10 124//10 121//12 177//12
f 119//102 250//102 249//101 118//101
f 174//102 120//102 117//101 173//101
f 249//101 251//100 115//100 118//101
f 117//101 116//100 170//100 173//101
f 170//100 116//100 114//99 169//99
f 113//99 253//99 252//98 112//98
f 169//99 114//99 111//98 168//98
f 252//98 254//97 109//97 112//98
f 111//98 110//97 247//97 168//98
f 109//97 254//97 255//96 108//96
f 247//97 110//97 107//96 248//96
f 107//96 106//95 156//95 248//96
f 105//95 257//95 256//94 104//94
f 257//95 259//191 258//192 256//94
f 27//28 259//191 257//95 255//96
f 258//192 261//193 260//93 256//94
f 261//193 263//194 262//92 260//93
f 262//92 263//194 265//195 264//91
f 265//195 267//196 266//90 264//91
f 266//90 267//196 269//197 268//89
f 263//194 270//198 40//43 265//195
f 271//199 270//198 263//194 261//193
f 34//36 271//199 261//193 258//192
f 156//95 106//95 103//94 155//94
f 256//94 260//93 102//93 104//94
f 103//94 101//93 153//93 155//94
f 260//93 262//92 99//92 102//93
f 101//93 100//92 150//92 153//93
f 150//92 100//92 97//91 149//91
f 264//91 266//90 95//90 98//91
f 97//91 96//90 146//90 149//91
f 95//90 266//90 268//89 94//89
f 146//90 96//90 93//89 145//89
f 89//85 136//84 135//84 91//85
f 142//87 92//87 91//85 139//85
f 84//85 85//84 136//84 89//85
f 87//88 45//47 49//49 82//83
f 56//53 51//50 46//46 47//45
f 48//48 76//77 47//45
f 44//44 45//47 87//88 269//197
f 267//196 41//42 44//44 269//197
f 48//48 42//41 43//40
f 39//38 78//78 43//40
f 40//43 41//42 267//196 265//195
f 35//35 38//39 270//198 271//199
f 79//79 78//78 39//38 36//34
f 35//35 271//199 34//36
f 79//79 36//34 33//33
f 259//191 37//37 34//36 258//192
f 72//72 73//73 79//79 33//33
f 30//30 72//72 33//33
f 32//32 272//200 71//71 31//29
f 29//31 37//37 28//27
f 72//72 30//30 31//29
f 254//97 25//26 27//28 255//96
f 32//32 26//25 24//23
f 23//24 25//26 254//97 252//98
f 22//21 272//200 32//32 24//23
f 253//99 21//22 23//24 252//98
f 251//100 19//20 21//22 253//99
f 71//71 272//200 20//19 18//17
f 80//80 68//70 71//71 18//17
f 17//18 19//20 251//100 249//101
f 16//15 80//80 18//17
f 250//102 15//16 17//18 249//101
f 67//67 80//80 16//15 13//14
f 63//62 62//63 67//67 13//14
f 14//13 63//62 13//14
f 123//10 9//10 11//12 122//12
f 8//7 64//64 14//13 10//9
f 125//8 7//8 9//10 123//10
f 3//2 61//61 58//60 6//5
f 129//3 2//3 5//6 128//6
f 86//86 81//81 4//1 1//4
f 53//56 61//61 3//2 4//1
f 58//60 64//64 8//7 6//5
f 12//11 15//16 250//102 11//12
f 50//51 52//52 81//81 83//82
f 77//76 75//74 66//65 57//57
f 55//54 77//76 57//57
f 20//19 272//200 22//21
f 269//197 87//88 88//87 268//89
f 270//198 38//39 40//43
f 28//27 37//37 259//191 27//28
f 1//4 2//3 129//3 132//4
f 5//6 7//8 125//8 128//6
f 11//12 250//102 119//102 122//12
f 85//84 86//86 133//86 136//84
f 115//100 251//100 253//99 113//99
f 268//89 88//87 90//87 94//89
f 99//92 262//92 264//91 98//91
f 255//96 257//95 105//95 108//96
f 131//4 130//3 245//3 243//4
f 246//6 180//8 181//128 185//131
f 121//12 120//102 174//102 177//12
f 137//84 138//86 190//138 141//103
f 225//171 236//184 242//189 228//175
f 224//172 225//171 228//175
f 239//185 171//123 166//122 167//121
f 93//89 92//87 142//87 145//89
f 210//156 151//109 148//108 204//150
f 248//96 156//95 157//112 161//115
